<svg width="184" height="184" viewBox="0 0 184 184" fill="none" xmlns="http://www.w3.org/2000/svg">
<path d="M92.0127 0C41.2156 0 0 41.1706 0 92C0 142.829 41.1649 184 91.9873 184C142.81 184 184 142.829 184 92C184 41.1706 142.835 0 92.0127 0ZM92.0127 171.4C47.8821 171.4 12.1163 135.63 12.1163 91.493C12.1163 47.3563 47.8821 11.5602 92.0127 11.5602C136.143 11.5602 171.909 47.3309 171.909 91.4676C171.934 135.63 136.143 171.4 92.0127 171.4Z" fill="url(#paint0_linear_2002_33)"/>
<path d="M92.0129 171.4C136.143 171.4 171.909 135.63 171.909 91.4929C171.909 47.3563 136.143 11.5602 92.0129 11.5602C47.8823 11.5602 12.1165 47.3309 12.1165 91.4676C12.1165 135.604 47.8823 171.4 92.0129 171.4Z" fill="url(#paint1_linear_2002_33)"/>
<path d="M171.529 91.493C171.529 135.427 135.915 170.995 92.0381 170.995C48.161 170.995 12.4966 135.376 12.4966 91.493C12.4966 47.6099 48.085 11.9406 92.0128 11.9406C135.941 11.9406 171.529 47.5592 171.529 91.493Z" stroke="url(#paint2_linear_2002_33)" stroke-width="3"/>
<path d="M130.592 172.44L126.739 174.037L126.334 173.048L128.97 171.958L128.209 170.133L125.776 171.147L125.37 170.158L127.804 169.144L126.638 166.305L127.854 165.798L130.592 172.44Z" fill="url(#paint3_linear_2002_33)"/>
<path d="M123.039 175.381L121.796 175.786L119.921 169.981L117.107 170.868L116.778 169.829L120.833 168.536L123.039 175.381Z" fill="url(#paint4_linear_2002_33)"/>
<path d="M108.413 175.609C107.881 173.251 109.021 171.578 110.948 171.172C112.95 170.741 114.522 171.983 114.978 174.037C115.46 176.217 114.42 178.042 112.443 178.473C110.415 178.904 108.844 177.637 108.413 175.609ZM113.634 174.366C113.305 172.921 112.342 171.958 111.125 172.237C109.883 172.516 109.452 173.834 109.782 175.304C110.086 176.623 111.024 177.738 112.291 177.459C113.533 177.13 113.964 175.812 113.634 174.366Z" fill="url(#paint5_linear_2002_33)"/>
<path d="M105.346 179.564C104.864 179.716 104.154 179.868 103.394 179.969C102.355 180.096 101.645 180.02 101.113 179.665C100.682 179.386 100.403 178.904 100.327 178.296C100.2 177.383 100.758 176.673 101.417 176.344V176.319C100.885 176.192 100.504 175.735 100.251 175.076C99.896 174.214 99.6171 173.403 99.4397 173.15L100.783 172.972C100.91 173.175 101.163 173.733 101.468 174.595C101.797 175.507 102.152 175.761 102.912 175.685L103.571 175.609L103.191 172.668L104.484 172.516L105.346 179.564ZM103.673 176.572L102.887 176.673C102 176.775 101.518 177.307 101.62 178.017C101.721 178.803 102.304 179.082 103.14 178.98C103.546 178.93 103.825 178.854 103.926 178.828L103.673 176.572Z" fill="url(#paint6_linear_2002_33)"/>
<path d="M95.0037 175.482L95.5614 173.428L96.9048 173.378L94.8517 180.654L93.1787 180.704L90.5679 173.581L91.9874 173.53L92.7224 175.533L95.0037 175.482ZM93.0013 176.547L93.635 178.296C93.787 178.727 93.9138 179.209 94.0405 179.64H94.0659C94.1673 179.209 94.2687 178.702 94.37 178.271L94.8517 176.471L93.0013 176.547Z" fill="url(#paint7_linear_2002_33)"/>
<path d="M126.283 52.7815L96.8288 98.1604V131.827H85.3208V98.2618L57.2861 52.7815H70.3656L82.8114 74.5836C84.0788 76.9159 85.2702 79.0455 86.4108 81.1243V52.4519H96.5753V81.8341C97.8934 79.5271 99.2875 77.1188 100.732 74.5836L113.432 52.7815H126.283Z" fill="url(#paint8_linear_2002_33)"/>
<path d="M54.6499 11.2812L58.5028 9.68408L58.9083 10.6728L56.2722 11.7882L57.0326 13.6135L59.466 12.5995L59.8716 13.5882L57.4382 14.6022L58.6042 17.4416L57.3875 17.9486L54.6499 11.2812Z" fill="url(#paint9_linear_2002_33)"/>
<path d="M62.1782 8.34056L63.4203 7.93494L65.296 13.7404L68.1096 12.8277L68.4391 13.8671L64.3835 15.2108L62.1782 8.34056Z" fill="url(#paint10_linear_2002_33)"/>
<path d="M76.8294 8.11238C77.3617 10.4701 76.221 12.1432 74.2946 12.5489C72.2921 12.9798 70.7205 11.7376 70.2643 9.68416C69.7827 7.50394 70.8219 5.67865 72.7991 5.24768C74.8269 4.79135 76.3731 6.08427 76.8294 8.11238ZM71.6077 9.35459C71.9372 10.7996 72.9004 11.763 74.1171 11.4841C75.3592 11.2052 75.7901 9.88697 75.4606 8.41659C75.1564 7.09832 74.2439 5.98286 72.9511 6.26173C71.6837 6.5913 71.2782 7.90957 71.6077 9.35459Z" fill="url(#paint11_linear_2002_33)"/>
<path d="M79.8962 4.15748C80.3778 4.00537 81.0876 3.85326 81.848 3.75186C82.8873 3.6251 83.597 3.70116 84.1293 4.05608C84.5602 4.33494 84.8391 4.81662 84.9151 5.42505C85.0418 6.3377 84.4842 7.04753 83.8252 7.3771V7.40245C84.3828 7.52921 84.7377 7.98553 84.9912 8.64467C85.346 9.50661 85.6248 10.3179 85.8023 10.5714L84.4589 10.7488C84.3321 10.546 84.0786 9.98829 83.7745 9.12634C83.4449 8.21369 83.0901 7.96018 82.3296 8.03624L81.6706 8.11229L82.0508 11.053L80.7581 11.2052L79.8962 4.15748ZM81.5692 7.14894L82.355 7.04753C83.2422 6.94613 83.7238 6.41375 83.6224 5.70391C83.521 4.91802 82.938 4.63916 82.1015 4.74056C81.6959 4.79126 81.4171 4.86732 81.3157 4.89267L81.5692 7.14894Z" fill="url(#paint12_linear_2002_33)"/>
<path d="M90.2129 8.2391L89.6552 10.2926L88.3118 10.3433L90.3649 3.06743L92.0379 3.01672L94.6234 10.1404L93.2039 10.1912L92.4688 8.1884L90.2129 8.2391ZM92.2407 7.17434L91.607 5.4251C91.4549 4.99413 91.3282 4.51245 91.2014 4.08148H91.1761C91.0747 4.51245 90.9733 5.01948 90.8719 5.45045L90.3903 7.2504L92.2407 7.17434Z" fill="url(#paint13_linear_2002_33)"/>
<path d="M104.103 8.39119L105.498 8.99962C105.193 9.78551 104.763 10.3432 104.205 10.6728C103.647 11.0024 102.963 11.1291 102.177 11.0531C101.188 10.9517 100.428 10.5207 99.8704 9.78551C99.3127 9.05032 99.0846 8.08697 99.2113 6.92081C99.3381 5.67859 99.769 4.76595 100.479 4.15751C101.188 3.54908 102.05 3.29557 103.09 3.39697C104.002 3.49838 104.712 3.82795 105.219 4.43638C105.523 4.7913 105.726 5.27297 105.827 5.88141L104.306 6.08422C104.256 5.70395 104.103 5.37438 103.85 5.12087C103.597 4.86735 103.267 4.71524 102.861 4.68989C102.304 4.63919 101.848 4.7913 101.467 5.14622C101.087 5.50113 100.834 6.13492 100.758 6.99686C100.656 7.93486 100.758 8.61935 101.062 9.05032C101.366 9.48129 101.771 9.73481 102.304 9.78551C102.709 9.83621 103.064 9.73481 103.368 9.50665C103.673 9.27848 103.901 8.92356 104.103 8.39119Z" fill="url(#paint14_linear_2002_33)"/>
<path d="M107.12 7.68135C107.323 6.94616 107.576 6.36308 107.906 5.9321C108.159 5.60254 108.463 5.34902 108.793 5.12086C109.148 4.91805 109.477 4.76594 109.832 4.71524C110.314 4.63919 110.821 4.68989 111.353 4.842C112.342 5.12086 113.051 5.67859 113.482 6.51518C113.913 7.35178 113.964 8.34048 113.66 9.50664C113.355 10.6728 112.823 11.484 112.063 11.9657C111.302 12.4474 110.415 12.5488 109.427 12.2699C108.413 11.9911 107.703 11.4333 107.297 10.6221C106.866 9.81086 106.816 8.82216 107.12 7.68135ZM108.539 8.03626C108.337 8.84751 108.337 9.50664 108.59 10.039C108.844 10.5714 109.224 10.901 109.756 11.0531C110.288 11.2052 110.795 11.1291 111.252 10.7996C111.708 10.47 112.037 9.91226 112.265 9.07567C112.494 8.26443 112.468 7.57994 112.24 7.09827C112.012 6.59124 111.606 6.26167 111.049 6.10956C110.491 5.95745 109.984 6.03351 109.528 6.33772C109.072 6.64194 108.742 7.22502 108.539 8.03626Z" fill="url(#paint15_linear_2002_33)"/>
<path d="M114.598 13.4108L116.651 6.26172L118.096 6.66734L116.042 13.8164L114.598 13.4108Z" fill="url(#paint16_linear_2002_33)"/>
<path d="M118.4 14.5769L120.706 7.50391L122.1 7.96023L123.469 13.6389L125.015 8.92358L126.334 9.35455L124.027 16.4276L122.582 15.9713L121.239 10.394L119.743 15.0079L118.4 14.5769Z" fill="url(#paint17_linear_2002_33)"/>
<path d="M82.9634 175.457L81.5693 174.848C81.8734 174.062 82.3044 173.505 82.862 173.175C83.4197 172.845 84.1041 172.719 84.8898 172.795C85.8784 172.896 86.6388 173.327 87.1965 174.062C87.7541 174.797 87.9823 175.761 87.8302 176.927C87.7034 178.169 87.2725 179.082 86.5628 179.69C85.8531 180.299 84.9912 180.552 83.952 180.425C83.0394 180.324 82.3297 179.969 81.8481 179.386C81.5439 179.031 81.3411 178.549 81.2397 177.941L82.7606 177.738C82.8113 178.118 82.9634 178.448 83.2169 178.702C83.4704 178.955 83.7999 179.107 84.1801 179.158C84.7378 179.209 85.194 179.082 85.5742 178.727C85.9544 178.372 86.2079 177.764 86.284 176.876C86.3854 175.938 86.284 175.254 86.0051 174.823C85.701 174.392 85.2954 174.138 84.7631 174.088C84.3575 174.037 84.0027 174.138 83.6985 174.341C83.3943 174.544 83.1408 174.924 82.9634 175.457Z" fill="url(#paint18_linear_2002_33)"/>
<path d="M79.9217 176.065C79.7696 176.8 79.5415 177.409 79.212 177.865C78.9585 178.194 78.6796 178.499 78.3248 178.727C77.9699 178.955 77.615 179.107 77.2602 179.183C76.7786 179.285 76.2209 179.259 75.6379 179.158C74.5733 178.93 73.7622 178.423 73.2552 177.637C72.7483 176.851 72.6215 175.837 72.8496 174.671C73.1031 173.504 73.6101 172.643 74.3705 172.11C75.1563 171.578 76.0688 171.426 77.1334 171.628C78.2234 171.857 79.0092 172.364 79.5161 173.15C80.0231 173.935 80.1498 174.899 79.9217 176.065ZM78.4008 175.786C78.5783 174.949 78.5022 174.29 78.2234 173.783C77.9192 173.276 77.4883 172.972 76.9053 172.845C76.3223 172.719 75.79 172.845 75.3337 173.175C74.8775 173.53 74.5479 174.113 74.3705 174.949C74.1931 175.786 74.2438 176.445 74.548 176.927C74.8521 177.409 75.283 177.713 75.8914 177.84C76.4997 177.966 77.032 177.865 77.4883 177.51C77.9192 177.231 78.2234 176.648 78.4008 175.786Z" fill="url(#paint19_linear_2002_33)"/>
<path d="M71.557 170.386L69.5798 177.561L68.135 177.155L70.1121 169.981L71.557 170.386Z" fill="url(#paint20_linear_2002_33)"/>
<path d="M67.8055 169.246L65.3721 176.293L63.978 175.812L62.7106 170.133L61.0884 174.823L59.7703 174.367L62.2037 167.319L63.6231 167.801L64.8905 173.352L66.4621 168.764L67.8055 169.246Z" fill="url(#paint21_linear_2002_33)"/>
<defs>
<linearGradient id="paint0_linear_2002_33" x1="92.0009" y1="184" x2="92.0009" y2="0" gradientUnits="userSpaceOnUse">
<stop stop-color="#BC7503"/>
<stop offset="0.5" stop-color="#E3D679"/>
<stop offset="1" stop-color="#B87705"/>
</linearGradient>
<linearGradient id="paint1_linear_2002_33" x1="35.6348" y1="147.872" x2="148.415" y2="35.1071" gradientUnits="userSpaceOnUse">
<stop stop-color="#C8982A"/>
<stop offset="0.22" stop-color="#E8D879"/>
<stop offset="0.51" stop-color="#E8D173"/>
<stop offset="0.65" stop-color="#D8B551"/>
<stop offset="1" stop-color="#C69425"/>
</linearGradient>
<linearGradient id="paint2_linear_2002_33" x1="92.0011" y1="11.5642" x2="92.0011" y2="171.377" gradientUnits="userSpaceOnUse">
<stop stop-color="#805713"/>
<stop offset="1" stop-color="#DFC461"/>
</linearGradient>
<linearGradient id="paint3_linear_2002_33" x1="125.349" y1="169.908" x2="130.592" y2="169.908" gradientUnits="userSpaceOnUse">
<stop stop-color="#F9B117"/>
<stop offset="0.22" stop-color="#F4CA6D"/>
<stop offset="0.51" stop-color="#FEDD69"/>
<stop offset="0.65" stop-color="#E2B854"/>
<stop offset="1" stop-color="#FDC537"/>
</linearGradient>
<linearGradient id="paint4_linear_2002_33" x1="116.781" y1="172.146" x2="123.049" y2="172.146" gradientUnits="userSpaceOnUse">
<stop stop-color="#F9B117"/>
<stop offset="0.22" stop-color="#F4CA6D"/>
<stop offset="0.51" stop-color="#FEDD69"/>
<stop offset="0.65" stop-color="#E2B854"/>
<stop offset="1" stop-color="#FDC537"/>
</linearGradient>
<linearGradient id="paint5_linear_2002_33" x1="108.279" y1="174.815" x2="115.094" y2="174.815" gradientUnits="userSpaceOnUse">
<stop stop-color="#F9B117"/>
<stop offset="0.22" stop-color="#F4CA6D"/>
<stop offset="0.51" stop-color="#FEDD69"/>
<stop offset="0.65" stop-color="#E2B854"/>
<stop offset="1" stop-color="#FDC537"/>
</linearGradient>
<linearGradient id="paint6_linear_2002_33" x1="99.4214" y1="176.268" x2="105.351" y2="176.268" gradientUnits="userSpaceOnUse">
<stop stop-color="#F9B117"/>
<stop offset="0.22" stop-color="#F4CA6D"/>
<stop offset="0.51" stop-color="#FEDD69"/>
<stop offset="0.65" stop-color="#E2B854"/>
<stop offset="1" stop-color="#FDC537"/>
</linearGradient>
<linearGradient id="paint7_linear_2002_33" x1="90.5978" y1="177.039" x2="96.917" y2="177.039" gradientUnits="userSpaceOnUse">
<stop stop-color="#F9B117"/>
<stop offset="0.22" stop-color="#F4CA6D"/>
<stop offset="0.51" stop-color="#FEDD69"/>
<stop offset="0.65" stop-color="#E2B854"/>
<stop offset="1" stop-color="#FDC537"/>
</linearGradient>
<linearGradient id="paint8_linear_2002_33" x1="103.714" y1="41.5568" x2="62.5337" y2="119.906" gradientUnits="userSpaceOnUse">
<stop stop-color="#B87803"/>
<stop offset="0.5514" stop-color="#D9AF48"/>
<stop offset="0.851" stop-color="#E2B854"/>
<stop offset="1" stop-color="#BB7C07"/>
</linearGradient>
<linearGradient id="paint9_linear_2002_33" x1="54.6424" y1="13.8108" x2="59.8856" y2="13.8108" gradientUnits="userSpaceOnUse">
<stop stop-color="#F9B117"/>
<stop offset="0.22" stop-color="#F4CA6D"/>
<stop offset="0.51" stop-color="#FEDD69"/>
<stop offset="0.65" stop-color="#E2B854"/>
<stop offset="1" stop-color="#FDC537"/>
</linearGradient>
<linearGradient id="paint10_linear_2002_33" x1="62.186" y1="11.5719" x2="68.454" y2="11.5719" gradientUnits="userSpaceOnUse">
<stop stop-color="#F9B117"/>
<stop offset="0.22" stop-color="#F4CA6D"/>
<stop offset="0.51" stop-color="#FEDD69"/>
<stop offset="0.65" stop-color="#E2B854"/>
<stop offset="1" stop-color="#FDC537"/>
</linearGradient>
<linearGradient id="paint11_linear_2002_33" x1="70.1361" y1="8.90278" x2="76.9532" y2="8.90278" gradientUnits="userSpaceOnUse">
<stop stop-color="#F9B117"/>
<stop offset="0.22" stop-color="#F4CA6D"/>
<stop offset="0.51" stop-color="#FEDD69"/>
<stop offset="0.65" stop-color="#E2B854"/>
<stop offset="1" stop-color="#FDC537"/>
</linearGradient>
<linearGradient id="paint12_linear_2002_33" x1="79.8842" y1="7.4492" x2="85.8108" y2="7.4492" gradientUnits="userSpaceOnUse">
<stop stop-color="#F9B117"/>
<stop offset="0.22" stop-color="#F4CA6D"/>
<stop offset="0.51" stop-color="#FEDD69"/>
<stop offset="0.65" stop-color="#E2B854"/>
<stop offset="1" stop-color="#FDC537"/>
</linearGradient>
<linearGradient id="paint13_linear_2002_33" x1="88.318" y1="6.68012" x2="94.6347" y2="6.68012" gradientUnits="userSpaceOnUse">
<stop stop-color="#F9B117"/>
<stop offset="0.22" stop-color="#F4CA6D"/>
<stop offset="0.51" stop-color="#FEDD69"/>
<stop offset="0.65" stop-color="#E2B854"/>
<stop offset="1" stop-color="#FDC537"/>
</linearGradient>
<linearGradient id="paint14_linear_2002_33" x1="99.1758" y1="7.0858" x2="105.735" y2="7.379" gradientUnits="userSpaceOnUse">
<stop stop-color="#F9B117"/>
<stop offset="0.22" stop-color="#F4CA6D"/>
<stop offset="0.51" stop-color="#FEDD69"/>
<stop offset="0.65" stop-color="#E2B854"/>
<stop offset="1" stop-color="#FDC537"/>
</linearGradient>
<linearGradient id="paint15_linear_2002_33" x1="106.993" y1="8.18502" x2="113.797" y2="8.95873" gradientUnits="userSpaceOnUse">
<stop stop-color="#F9B117"/>
<stop offset="0.22" stop-color="#F4CA6D"/>
<stop offset="0.51" stop-color="#FEDD69"/>
<stop offset="0.65" stop-color="#E2B854"/>
<stop offset="1" stop-color="#FDC537"/>
</linearGradient>
<linearGradient id="paint16_linear_2002_33" x1="114.804" y1="9.94434" x2="117.889" y2="10.1302" gradientUnits="userSpaceOnUse">
<stop stop-color="#F9B117"/>
<stop offset="0.22" stop-color="#F4CA6D"/>
<stop offset="0.51" stop-color="#FEDD69"/>
<stop offset="0.65" stop-color="#E2B854"/>
<stop offset="1" stop-color="#FDC537"/>
</linearGradient>
<linearGradient id="paint17_linear_2002_33" x1="118.494" y1="11.8219" x2="126.234" y2="12.0668" gradientUnits="userSpaceOnUse">
<stop stop-color="#F9B117"/>
<stop offset="0.22" stop-color="#F4CA6D"/>
<stop offset="0.51" stop-color="#FEDD69"/>
<stop offset="0.65" stop-color="#E2B854"/>
<stop offset="1" stop-color="#FDC537"/>
</linearGradient>
<linearGradient id="paint18_linear_2002_33" x1="81.2519" y1="176.602" x2="87.8983" y2="176.602" gradientUnits="userSpaceOnUse">
<stop stop-color="#F9B117"/>
<stop offset="0.22" stop-color="#F4CA6D"/>
<stop offset="0.51" stop-color="#FEDD69"/>
<stop offset="0.65" stop-color="#E2B854"/>
<stop offset="1" stop-color="#FDC537"/>
</linearGradient>
<linearGradient id="paint19_linear_2002_33" x1="72.7271" y1="175.38" x2="80.0361" y2="175.38" gradientUnits="userSpaceOnUse">
<stop stop-color="#F9B117"/>
<stop offset="0.22" stop-color="#F4CA6D"/>
<stop offset="0.51" stop-color="#FEDD69"/>
<stop offset="0.65" stop-color="#E2B854"/>
<stop offset="1" stop-color="#FDC537"/>
</linearGradient>
<linearGradient id="paint20_linear_2002_33" x1="68.128" y1="173.785" x2="71.5521" y2="173.785" gradientUnits="userSpaceOnUse">
<stop stop-color="#F9B117"/>
<stop offset="0.22" stop-color="#F4CA6D"/>
<stop offset="0.51" stop-color="#FEDD69"/>
<stop offset="0.65" stop-color="#E2B854"/>
<stop offset="1" stop-color="#FDC537"/>
</linearGradient>
<linearGradient id="paint21_linear_2002_33" x1="59.8026" y1="171.79" x2="67.8043" y2="171.79" gradientUnits="userSpaceOnUse">
<stop stop-color="#F9B117"/>
<stop offset="0.22" stop-color="#F4CA6D"/>
<stop offset="0.51" stop-color="#FEDD69"/>
<stop offset="0.65" stop-color="#E2B854"/>
<stop offset="1" stop-color="#FDC537"/>
</linearGradient>
</defs>
</svg>
