<svg width="94" height="94" viewBox="0 0 94 94" fill="none" xmlns="http://www.w3.org/2000/svg">
<path d="M47 94C72.9574 94 94 72.9574 94 47C94 21.0426 72.9574 0 47 0C21.0426 0 0 21.0426 0 47C0 72.9574 21.0426 94 47 94Z" fill="#1F61AC"/>
<path d="M46.9984 86.3306C69.2112 86.3306 87.2183 68.3235 87.2183 46.1106C87.2183 23.8977 69.2112 5.89065 46.9984 5.89065C24.7855 5.89065 6.77836 23.8977 6.77836 46.1106C6.77836 68.3235 24.7855 86.3306 46.9984 86.3306Z" fill="#3073B9"/>
<path d="M87.221 48.3804C87.221 70.601 69.2136 88.6084 47.0091 88.6084C24.8045 88.6084 6.79714 70.601 6.79714 48.3804C6.79714 48.001 6.80521 47.6297 6.81328 47.2504C7.41057 68.9383 25.1839 86.3323 47.0091 86.3323C68.8342 86.3323 86.6076 68.9383 87.2048 47.2504C87.2129 47.6297 87.221 48.001 87.221 48.3804Z" fill="#7DB6E4"/>
<path d="M87.2183 45.0048C87.2183 45.3761 87.2103 45.7394 87.2022 46.1106C86.6049 25.02 68.8316 8.10222 46.9984 8.10222C25.1651 8.10222 7.39179 25.02 6.79451 46.1106C6.78644 45.7394 6.77836 45.3761 6.77836 45.0048C6.77836 23.3976 24.7858 5.89065 46.9984 5.89065C69.211 5.89065 87.2183 23.3976 87.2183 45.0048Z" fill="#104588"/>
<path d="M69.8639 31.3262C69.194 29.8734 67.9671 29.2034 67.2326 28.9128C66.9017 28.7837 66.5465 28.7272 66.1914 28.7272H26.3992C25.8342 28.7272 25.2692 28.8806 24.793 29.1953C24.2199 29.5666 23.5177 30.1639 22.985 31.1002C22.2505 32.3997 22.2343 33.6911 22.3231 34.4821C22.3715 34.8857 22.5088 35.2731 22.7105 35.6283C29.7408 47.8484 36.7791 60.0767 43.8174 72.2968C44.9797 74.3308 47.9177 74.3147 49.0638 72.2726C55.8922 60.117 62.7288 47.9695 69.5572 35.8139C69.654 35.6606 70.9051 33.5862 69.8639 31.3262ZM42.5663 57.631L30.1766 34.9987H42.5663V57.631ZM49.427 57.631V34.9987H61.8086L49.427 57.631Z" fill="#88B7E3"/>
</svg>
