<svg width="48" height="48" viewBox="0 0 48 48" fill="none" xmlns="http://www.w3.org/2000/svg">
<path d="M5.44983 31V17H10.9098C12.1365 17 13.1832 17.1934 14.0498 17.58C14.9165 17.9667 15.5832 18.5267 16.0498 19.26C16.5165 19.9934 16.7498 20.8667 16.7498 21.88C16.7498 22.8934 16.5165 23.7667 16.0498 24.5C15.5832 25.22 14.9165 25.78 14.0498 26.18C13.1832 26.5667 12.1365 26.76 10.9098 26.76H6.54983L7.44983 25.82V31H5.44983ZM7.44983 26.02L6.54983 25.02H10.8498C12.1298 25.02 13.0965 24.7467 13.7498 24.2C14.4165 23.6534 14.7498 22.88 14.7498 21.88C14.7498 20.88 14.4165 20.1067 13.7498 19.56C13.0965 19.0134 12.1298 18.74 10.8498 18.74H6.54983L7.44983 17.74V26.02Z" fill="white"/>
<path d="M18.4489 31V29.64L24.1489 24.14C24.6556 23.66 25.0289 23.24 25.2689 22.88C25.5223 22.5067 25.6889 22.1667 25.7689 21.86C25.8623 21.54 25.9089 21.2334 25.9089 20.94C25.9089 20.22 25.6556 19.6534 25.1489 19.24C24.6423 18.8267 23.9023 18.62 22.9289 18.62C22.1823 18.62 21.5089 18.7467 20.9089 19C20.3089 19.24 19.7889 19.62 19.3489 20.14L17.9889 18.96C18.5223 18.28 19.2356 17.76 20.1289 17.4C21.0356 17.0267 22.0289 16.84 23.1089 16.84C24.0823 16.84 24.9289 17 25.6489 17.32C26.3689 17.6267 26.9223 18.0734 27.3089 18.66C27.7089 19.2467 27.9089 19.94 27.9089 20.74C27.9089 21.1934 27.8489 21.64 27.7289 22.08C27.6089 22.52 27.3823 22.9867 27.0489 23.48C26.7156 23.9734 26.2356 24.5267 25.6089 25.14L20.5289 30.04L20.0489 29.26H28.5089V31H18.4489Z" fill="white"/>
<path d="M31.3165 31V17H36.7765C38.0032 17 39.0498 17.1934 39.9165 17.58C40.7832 17.9667 41.4498 18.5267 41.9165 19.26C42.3832 19.9934 42.6165 20.8667 42.6165 21.88C42.6165 22.8934 42.3832 23.7667 41.9165 24.5C41.4498 25.22 40.7832 25.78 39.9165 26.18C39.0498 26.5667 38.0032 26.76 36.7765 26.76H32.4165L33.3165 25.82V31H31.3165ZM33.3165 26.02L32.4165 25.02H36.7165C37.9965 25.02 38.9632 24.7467 39.6165 24.2C40.2832 23.6534 40.6165 22.88 40.6165 21.88C40.6165 20.88 40.2832 20.1067 39.6165 19.56C38.9632 19.0134 37.9965 18.74 36.7165 18.74H32.4165L33.3165 17.74V26.02Z" fill="white"/>
</svg>
